<svg width="505" height="38" viewBox="0 0 505 38" fill="none" xmlns="http://www.w3.org/2000/svg">
<path d="M23.123 22.7324H42.123V22.8324H23.123V22.7324Z" fill="#B2CFEE"/>
<path d="M47.5449 22.6318H66.5449V22.8318H47.5449V22.6318Z" fill="#B2CFEE"/>
<path d="M96.3867 22.332H115.387V22.832H96.3867V22.332Z" fill="#B2CFEE"/>
<path d="M120.807 22.0322H139.807V22.8322H120.807V22.0322Z" fill="#B2CFEE"/>
<path d="M145.229 22.332H164.229V22.832H145.229V22.332Z" fill="#B2CFEE"/>
<path d="M169.648 22.332H188.648V22.832H169.648V22.332Z" fill="#B2CFEE"/>
<path d="M194.07 21.1318H213.07V22.8318H194.07V21.1318Z" fill="#B2CFEE"/>
<path d="M218.492 19.4316H237.492V22.8316H218.492V19.4316Z" fill="#B2CFEE"/>
<path d="M242.912 19.832H261.912V22.832H242.912V19.832Z" fill="#B2CFEE"/>
<path d="M267.334 19.832H286.334V22.832H267.334V19.832Z" fill="#B2CFEE"/>
<path d="M291.754 19.332H310.754V22.832H291.754V19.332Z" fill="#B2CFEE"/>
<path d="M316.176 19.5322H335.176V22.8322H316.176V19.5322Z" fill="#B2CFEE"/>
<path d="M340.598 20.2324H359.598V22.8324H340.598V20.2324Z" fill="#B2CFEE"/>
<path d="M365.018 20.4316H384.018V22.8316H365.018V20.4316Z" fill="#B2CFEE"/>
<path d="M389.439 19.7324H408.439V22.8324H389.439V19.7324Z" fill="#B2CFEE"/>
<path d="M413.859 21.0322H432.859V22.8322H413.859V21.0322Z" fill="#B2CFEE"/>
<path d="M438.281 21.1318H457.281V22.8318H438.281V21.1318Z" fill="#B2CFEE"/>
<path d="M462.701 21.6318H481.701V22.8318H462.701V21.6318Z" fill="#B2CFEE"/>
</svg>
