<svg width="505" height="42" viewBox="0 0 505 42" fill="none" xmlns="http://www.w3.org/2000/svg">
<path d="M71.9668 26.5673H90.9668V26.832H71.9668V26.5673Z" fill="#2E83C0"/>
<path d="M96.3887 26.5674H115.389V26.8321H96.3887V26.5674Z" fill="#2E83C0"/>
<path d="M120.809 26.7441H139.809V26.8324H120.809V26.7441Z" fill="#2E83C0"/>
<path d="M145.23 26.3906H164.23V26.8318H145.23V26.3906Z" fill="#2E83C0"/>
<path d="M169.65 26.6553H188.65V26.8317H169.65V26.6553Z" fill="#2E83C0"/>
<path d="M194.072 25.2441H213.072V26.8324H194.072V25.2441Z" fill="#2E83C0"/>
<path d="M218.492 26.6553H237.492V26.8317H218.492V26.6553Z" fill="#2E83C0"/>
<path d="M242.914 26.7441H261.914V26.8324H242.914V26.7441Z" fill="#2E83C0"/>
<path d="M267.336 26.126H286.336V26.8319H267.336V26.126Z" fill="#2E83C0"/>
<path d="M291.756 25.8613H310.756V26.8319H291.756V25.8613Z" fill="#2E83C0"/>
<path d="M316.178 23.126H335.178V26.8319H316.178V23.126Z" fill="#2E83C0"/>
<path d="M340.598 22.332H359.598V26.832H340.598V22.332Z" fill="#2E83C0"/>
<path d="M365.02 22.8613H384.02V26.8319H365.02V22.8613Z" fill="#2E83C0"/>
<path d="M389.441 19.332H408.441V26.832H389.441V19.332Z" fill="#2E83C0"/>
<path d="M413.861 22.4199H432.861V26.8317H413.861V22.4199Z" fill="#2E83C0"/>
<path d="M438.283 24.626H457.283V26.8319H438.283V24.626Z" fill="#2E83C0"/>
<path d="M462.703 24.626H481.703V26.8319H462.703V24.626Z" fill="#2E83C0"/>
</svg>
