<svg width="505" height="49" viewBox="0 0 505 49" fill="none" xmlns="http://www.w3.org/2000/svg">
<path d="M23.123 33.6778H42.123V33.832H23.123V33.6778Z" fill="#95999E" stroke="#95999E"/>
<path d="M47.5449 33.6006H66.5449V33.832H47.5449V33.6006Z" fill="#95999E" stroke="#95999E"/>
<path d="M96.3867 33.6006H115.387V33.832H96.3867V33.6006Z" fill="#95999E" stroke="#95999E"/>
<path d="M120.807 33.1377H139.807V33.8318H120.807V33.1377Z" fill="#95999E" stroke="#95999E"/>
<path d="M145.229 32.5977H164.229V33.8317H145.229V32.5977Z" fill="#95999E" stroke="#95999E"/>
<path d="M169.648 32.1348H188.648V33.8316H169.648V32.1348Z" fill="#95999E" stroke="#95999E"/>
<path d="M194.07 29.5898H213.07V33.8319H194.07V29.5898Z" fill="#95999E" stroke="#95999E"/>
<path d="M218.492 22.6484H237.492V33.8319H218.492V22.6484Z" fill="#95999E" stroke="#95999E"/>
<path d="M242.912 20.0264H261.912V33.8322H242.912V20.0264Z" fill="#95999E" stroke="#95999E"/>
<path d="M267.334 26.4277H286.334V33.832H267.334V26.4277Z" fill="#95999E" stroke="#95999E"/>
<path d="M291.754 24.5H310.754V33.8324H291.754V24.5Z" fill="#95999E" stroke="#95999E"/>
<path d="M316.176 22.8799H335.176V33.832H316.176V22.8799Z" fill="#95999E" stroke="#95999E"/>
<path d="M340.598 20.6436H359.598V33.8324H340.598V20.6436Z" fill="#95999E" stroke="#95999E"/>
<path d="M365.018 22.3398H384.018V33.8319H365.018V22.3398Z" fill="#95999E" stroke="#95999E"/>
<path d="M389.439 19.332H408.439V33.832H389.439V19.332Z" fill="#95999E" stroke="#95999E"/>
<path d="M413.859 24.9619H432.859V33.8316H413.859V24.9619Z" fill="#95999E" stroke="#95999E"/>
<path d="M438.281 28.0479H457.281V33.8324H438.281V28.0479Z" fill="#95999E" stroke="#95999E"/>
<path d="M462.701 26.582H481.701V33.832H462.701V26.582Z" fill="#95999E" stroke="#95999E"/>
</svg>
