<svg width="505" height="103" viewBox="0 0 505 103" fill="none" xmlns="http://www.w3.org/2000/svg">
<path d="M23.123 85.3613H42.123V87.8323H23.123V85.3613Z" fill="#204354" stroke="#384252"/>
<path d="M47.5449 81.4492H66.5449V87.8325H47.5449V81.4492Z" fill="#204354" stroke="#384252"/>
<path d="M71.9648 80.2822H90.9648V87.8323H71.9648V80.2822Z" fill="#204354" stroke="#384252"/>
<path d="M96.3867 78.7715H115.387V87.8316H96.3867V78.7715Z" fill="#204354" stroke="#384252"/>
<path d="M120.807 75.8887H139.807V87.8316H120.807V75.8887Z" fill="#204354" stroke="#384252"/>
<path d="M145.229 77.125H164.229V87.8324H145.229V77.125Z" fill="#204354" stroke="#384252"/>
<path d="M169.648 72.251H188.648V87.8316H169.648V72.251Z" fill="#204354" stroke="#384252"/>
<path d="M194.07 73.0752H213.07V87.8322H194.07V73.0752Z" fill="#204354" stroke="#384252"/>
<path d="M218.492 69.1631H237.492V87.8324H218.492V69.1631Z" fill="#204354" stroke="#384252"/>
<path d="M242.912 70.3984H261.912V87.8323H242.912V70.3984Z" fill="#204354" stroke="#384252"/>
<path d="M267.334 38.4814H286.334V87.8316H267.334V38.4814Z" fill="#204354" stroke="#384252"/>
<path d="M291.754 32.5791H310.754V87.8321H291.754V32.5791Z" fill="#204354" stroke="#384252"/>
<path d="M316.176 44.3848H335.176V87.8322H316.176V44.3848Z" fill="#204354" stroke="#384252"/>
<path d="M340.598 56.7393H359.598V87.8319H340.598V56.7393Z" fill="#204354" stroke="#384252"/>
<path d="M365.018 45.7578H384.018V87.8325H365.018V45.7578Z" fill="#204354" stroke="#384252"/>
<path d="M389.439 43.9043H408.439V87.8322H389.439V43.9043Z" fill="#204354" stroke="#384252"/>
<path d="M413.859 47.542H432.859V87.8321H413.859V47.542Z" fill="#204354" stroke="#384252"/>
<path d="M438.281 19.332H457.281V87.832H438.281V19.332Z" fill="#204354" stroke="#384252"/>
<path d="M462.701 51.9346H481.701V87.8319H462.701V51.9346Z" fill="#204354" stroke="#384252"/>
</svg>
