<svg width="505" height="97" viewBox="0 0 505 97" fill="none" xmlns="http://www.w3.org/2000/svg">
<path d="M10.6816 51.832H494.682" stroke="#666666"/>
<path d="M32.8926 57.832V51.832" stroke="#666666"/>
<path d="M25.6914 58.832H20.1016V58.0527L23.0547 54.7715C23.4922 54.2754 23.793 53.873 23.957 53.5645C24.125 53.252 24.209 52.9297 24.209 52.5977C24.209 52.1523 24.0742 51.7871 23.8047 51.502C23.5352 51.2168 23.1758 51.0742 22.7266 51.0742C22.1875 51.0742 21.7676 51.2285 21.4668 51.5371C21.1699 51.8418 21.0215 52.2676 21.0215 52.8145H19.9375C19.9375 52.0293 20.1895 51.3945 20.6934 50.9102C21.2012 50.4258 21.8789 50.1836 22.7266 50.1836C23.5195 50.1836 24.1465 50.3926 24.6074 50.8105C25.0684 51.2246 25.2988 51.7773 25.2988 52.4688C25.2988 53.3086 24.7637 54.3086 23.6934 55.4688L21.4082 57.9473H25.6914V58.832ZM32.1895 55.1934C32.1895 56.4629 31.9727 57.4062 31.5391 58.0234C31.1055 58.6406 30.4277 58.9492 29.5059 58.9492C28.5957 58.9492 27.9219 58.6484 27.4844 58.0469C27.0469 57.4414 26.8203 56.5391 26.8047 55.3398V53.8926C26.8047 52.6387 27.0215 51.707 27.4551 51.0977C27.8887 50.4883 28.5684 50.1836 29.4941 50.1836C30.4121 50.1836 31.0879 50.4785 31.5215 51.0684C31.9551 51.6543 32.1777 52.5605 32.1895 53.7871V55.1934ZM31.1055 53.7109C31.1055 52.793 30.9766 52.125 30.7188 51.707C30.4609 51.2852 30.0527 51.0742 29.4941 51.0742C28.9395 51.0742 28.5352 51.2832 28.2812 51.7012C28.0273 52.1191 27.8965 52.7617 27.8887 53.6289V55.3633C27.8887 56.2852 28.0215 56.9668 28.2871 57.4082C28.5566 57.8457 28.9629 58.0645 29.5059 58.0645C30.041 58.0645 30.4375 57.8574 30.6953 57.4434C30.957 57.0293 31.0938 56.377 31.1055 55.4863V53.7109ZM38.9277 55.1934C38.9277 56.4629 38.7109 57.4062 38.2773 58.0234C37.8438 58.6406 37.166 58.9492 36.2441 58.9492C35.334 58.9492 34.6602 58.6484 34.2227 58.0469C33.7852 57.4414 33.5586 56.5391 33.543 55.3398V53.8926C33.543 52.6387 33.7598 51.707 34.1934 51.0977C34.627 50.4883 35.3066 50.1836 36.2324 50.1836C37.1504 50.1836 37.8262 50.4785 38.2598 51.0684C38.6934 51.6543 38.916 52.5605 38.9277 53.7871V55.1934ZM37.8438 53.7109C37.8438 52.793 37.7148 52.125 37.457 51.707C37.1992 51.2852 36.791 51.0742 36.2324 51.0742C35.6777 51.0742 35.2734 51.2832 35.0195 51.7012C34.7656 52.1191 34.6348 52.7617 34.627 53.6289V55.3633C34.627 56.2852 34.7598 56.9668 35.0254 57.4082C35.2949 57.8457 35.7012 58.0645 36.2441 58.0645C36.7793 58.0645 37.1758 57.8574 37.4336 57.4434C37.6953 57.0293 37.832 56.377 37.8438 55.4863V53.7109ZM45.666 55.1934C45.666 56.4629 45.4492 57.4062 45.0156 58.0234C44.582 58.6406 43.9043 58.9492 42.9824 58.9492C42.0723 58.9492 41.3984 58.6484 40.9609 58.0469C40.5234 57.4414 40.2969 56.5391 40.2812 55.3398V53.8926C40.2812 52.6387 40.498 51.707 40.9316 51.0977C41.3652 50.4883 42.0449 50.1836 42.9707 50.1836C43.8887 50.1836 44.5645 50.4785 44.998 51.0684C45.4316 51.6543 45.6543 52.5605 45.666 53.7871V55.1934ZM44.582 53.7109C44.582 52.793 44.4531 52.125 44.1953 51.707C43.9375 51.2852 43.5293 51.0742 42.9707 51.0742C42.416 51.0742 42.0117 51.2832 41.7578 51.7012C41.5039 52.1191 41.373 52.7617 41.3652 53.6289V55.3633C41.3652 56.2852 41.498 56.9668 41.7637 57.4082C42.0332 57.8457 42.4395 58.0645 42.9824 58.0645C43.5176 58.0645 43.9141 57.8574 44.1719 57.4434C44.4336 57.0293 44.5703 56.377 44.582 55.4863V53.7109Z" fill="#666666"/>
<path d="M81.7344 57.832V51.832" stroke="#666666"/>
<path d="M74.5332 58.832H68.9434V58.0527L71.8965 54.7715C72.334 54.2754 72.6348 53.873 72.7988 53.5645C72.9668 53.252 73.0508 52.9297 73.0508 52.5977C73.0508 52.1523 72.916 51.7871 72.6465 51.502C72.377 51.2168 72.0176 51.0742 71.5684 51.0742C71.0293 51.0742 70.6094 51.2285 70.3086 51.5371C70.0117 51.8418 69.8633 52.2676 69.8633 52.8145H68.7793C68.7793 52.0293 69.0312 51.3945 69.5352 50.9102C70.043 50.4258 70.7207 50.1836 71.5684 50.1836C72.3613 50.1836 72.9883 50.3926 73.4492 50.8105C73.9102 51.2246 74.1406 51.7773 74.1406 52.4688C74.1406 53.3086 73.6055 54.3086 72.5352 55.4688L70.25 57.9473H74.5332V58.832ZM81.0312 55.1934C81.0312 56.4629 80.8145 57.4062 80.3809 58.0234C79.9473 58.6406 79.2695 58.9492 78.3477 58.9492C77.4375 58.9492 76.7637 58.6484 76.3262 58.0469C75.8887 57.4414 75.6621 56.5391 75.6465 55.3398V53.8926C75.6465 52.6387 75.8633 51.707 76.2969 51.0977C76.7305 50.4883 77.4102 50.1836 78.3359 50.1836C79.2539 50.1836 79.9297 50.4785 80.3633 51.0684C80.7969 51.6543 81.0195 52.5605 81.0312 53.7871V55.1934ZM79.9473 53.7109C79.9473 52.793 79.8184 52.125 79.5605 51.707C79.3027 51.2852 78.8945 51.0742 78.3359 51.0742C77.7812 51.0742 77.377 51.2832 77.123 51.7012C76.8691 52.1191 76.7383 52.7617 76.7305 53.6289V55.3633C76.7305 56.2852 76.8633 56.9668 77.1289 57.4082C77.3984 57.8457 77.8047 58.0645 78.3477 58.0645C78.8828 58.0645 79.2793 57.8574 79.5371 57.4434C79.7988 57.0293 79.9355 56.377 79.9473 55.4863V53.7109ZM87.7695 55.1934C87.7695 56.4629 87.5527 57.4062 87.1191 58.0234C86.6855 58.6406 86.0078 58.9492 85.0859 58.9492C84.1758 58.9492 83.502 58.6484 83.0645 58.0469C82.627 57.4414 82.4004 56.5391 82.3848 55.3398V53.8926C82.3848 52.6387 82.6016 51.707 83.0352 51.0977C83.4688 50.4883 84.1484 50.1836 85.0742 50.1836C85.9922 50.1836 86.668 50.4785 87.1016 51.0684C87.5352 51.6543 87.7578 52.5605 87.7695 53.7871V55.1934ZM86.6855 53.7109C86.6855 52.793 86.5566 52.125 86.2988 51.707C86.041 51.2852 85.6328 51.0742 85.0742 51.0742C84.5195 51.0742 84.1152 51.2832 83.8613 51.7012C83.6074 52.1191 83.4766 52.7617 83.4688 53.6289V55.3633C83.4688 56.2852 83.6016 56.9668 83.8672 57.4082C84.1367 57.8457 84.543 58.0645 85.0859 58.0645C85.6211 58.0645 86.0176 57.8574 86.2754 57.4434C86.5371 57.0293 86.6738 56.377 86.6855 55.4863V53.7109ZM94.748 58.832H89.1582V58.0527L92.1113 54.7715C92.5488 54.2754 92.8496 53.873 93.0137 53.5645C93.1816 53.252 93.2656 52.9297 93.2656 52.5977C93.2656 52.1523 93.1309 51.7871 92.8613 51.502C92.5918 51.2168 92.2324 51.0742 91.7832 51.0742C91.2441 51.0742 90.8242 51.2285 90.5234 51.5371C90.2266 51.8418 90.0781 52.2676 90.0781 52.8145H88.9941C88.9941 52.0293 89.2461 51.3945 89.75 50.9102C90.2578 50.4258 90.9355 50.1836 91.7832 50.1836C92.5762 50.1836 93.2031 50.3926 93.6641 50.8105C94.125 51.2246 94.3555 51.7773 94.3555 52.4688C94.3555 53.3086 93.8203 54.3086 92.75 55.4688L90.4648 57.9473H94.748V58.832Z" fill="#666666"/>
<path d="M130.576 57.832V51.832" stroke="#666666"/>
<path d="M123.375 58.832H117.785V58.0527L120.738 54.7715C121.176 54.2754 121.477 53.873 121.641 53.5645C121.809 53.252 121.893 52.9297 121.893 52.5977C121.893 52.1523 121.758 51.7871 121.488 51.502C121.219 51.2168 120.859 51.0742 120.41 51.0742C119.871 51.0742 119.451 51.2285 119.15 51.5371C118.854 51.8418 118.705 52.2676 118.705 52.8145H117.621C117.621 52.0293 117.873 51.3945 118.377 50.9102C118.885 50.4258 119.562 50.1836 120.41 50.1836C121.203 50.1836 121.83 50.3926 122.291 50.8105C122.752 51.2246 122.982 51.7773 122.982 52.4688C122.982 53.3086 122.447 54.3086 121.377 55.4688L119.092 57.9473H123.375V58.832ZM129.873 55.1934C129.873 56.4629 129.656 57.4062 129.223 58.0234C128.789 58.6406 128.111 58.9492 127.189 58.9492C126.279 58.9492 125.605 58.6484 125.168 58.0469C124.73 57.4414 124.504 56.5391 124.488 55.3398V53.8926C124.488 52.6387 124.705 51.707 125.139 51.0977C125.572 50.4883 126.252 50.1836 127.178 50.1836C128.096 50.1836 128.771 50.4785 129.205 51.0684C129.639 51.6543 129.861 52.5605 129.873 53.7871V55.1934ZM128.789 53.7109C128.789 52.793 128.66 52.125 128.402 51.707C128.145 51.2852 127.736 51.0742 127.178 51.0742C126.623 51.0742 126.219 51.2832 125.965 51.7012C125.711 52.1191 125.58 52.7617 125.572 53.6289V55.3633C125.572 56.2852 125.705 56.9668 125.971 57.4082C126.24 57.8457 126.646 58.0645 127.189 58.0645C127.725 58.0645 128.121 57.8574 128.379 57.4434C128.641 57.0293 128.777 56.377 128.789 55.4863V53.7109ZM136.611 55.1934C136.611 56.4629 136.395 57.4062 135.961 58.0234C135.527 58.6406 134.85 58.9492 133.928 58.9492C133.018 58.9492 132.344 58.6484 131.906 58.0469C131.469 57.4414 131.242 56.5391 131.227 55.3398V53.8926C131.227 52.6387 131.443 51.707 131.877 51.0977C132.311 50.4883 132.99 50.1836 133.916 50.1836C134.834 50.1836 135.51 50.4785 135.943 51.0684C136.377 51.6543 136.6 52.5605 136.611 53.7871V55.1934ZM135.527 53.7109C135.527 52.793 135.398 52.125 135.141 51.707C134.883 51.2852 134.475 51.0742 133.916 51.0742C133.361 51.0742 132.957 51.2832 132.703 51.7012C132.449 52.1191 132.318 52.7617 132.311 53.6289V55.3633C132.311 56.2852 132.443 56.9668 132.709 57.4082C132.979 57.8457 133.385 58.0645 133.928 58.0645C134.463 58.0645 134.859 57.8574 135.117 57.4434C135.379 57.0293 135.516 56.377 135.527 55.4863V53.7109ZM142.576 55.9668H143.76V56.8516H142.576V58.832H141.486V56.8516H137.602V56.2129L141.422 50.3008H142.576V55.9668ZM138.832 55.9668H141.486V51.7832L141.357 52.0176L138.832 55.9668Z" fill="#666666"/>
<path d="M179.418 57.832V51.832" stroke="#666666"/>
<path d="M172.217 58.832H166.627V58.0527L169.58 54.7715C170.018 54.2754 170.318 53.873 170.482 53.5645C170.65 53.252 170.734 52.9297 170.734 52.5977C170.734 52.1523 170.6 51.7871 170.33 51.502C170.061 51.2168 169.701 51.0742 169.252 51.0742C168.713 51.0742 168.293 51.2285 167.992 51.5371C167.695 51.8418 167.547 52.2676 167.547 52.8145H166.463C166.463 52.0293 166.715 51.3945 167.219 50.9102C167.727 50.4258 168.404 50.1836 169.252 50.1836C170.045 50.1836 170.672 50.3926 171.133 50.8105C171.594 51.2246 171.824 51.7773 171.824 52.4688C171.824 53.3086 171.289 54.3086 170.219 55.4688L167.934 57.9473H172.217V58.832ZM178.715 55.1934C178.715 56.4629 178.498 57.4062 178.064 58.0234C177.631 58.6406 176.953 58.9492 176.031 58.9492C175.121 58.9492 174.447 58.6484 174.01 58.0469C173.572 57.4414 173.346 56.5391 173.33 55.3398V53.8926C173.33 52.6387 173.547 51.707 173.98 51.0977C174.414 50.4883 175.094 50.1836 176.02 50.1836C176.938 50.1836 177.613 50.4785 178.047 51.0684C178.48 51.6543 178.703 52.5605 178.715 53.7871V55.1934ZM177.631 53.7109C177.631 52.793 177.502 52.125 177.244 51.707C176.986 51.2852 176.578 51.0742 176.02 51.0742C175.465 51.0742 175.061 51.2832 174.807 51.7012C174.553 52.1191 174.422 52.7617 174.414 53.6289V55.3633C174.414 56.2852 174.547 56.9668 174.812 57.4082C175.082 57.8457 175.488 58.0645 176.031 58.0645C176.566 58.0645 176.963 57.8574 177.221 57.4434C177.482 57.0293 177.619 56.377 177.631 55.4863V53.7109ZM185.453 55.1934C185.453 56.4629 185.236 57.4062 184.803 58.0234C184.369 58.6406 183.691 58.9492 182.77 58.9492C181.859 58.9492 181.186 58.6484 180.748 58.0469C180.311 57.4414 180.084 56.5391 180.068 55.3398V53.8926C180.068 52.6387 180.285 51.707 180.719 51.0977C181.152 50.4883 181.832 50.1836 182.758 50.1836C183.676 50.1836 184.352 50.4785 184.785 51.0684C185.219 51.6543 185.441 52.5605 185.453 53.7871V55.1934ZM184.369 53.7109C184.369 52.793 184.24 52.125 183.982 51.707C183.725 51.2852 183.316 51.0742 182.758 51.0742C182.203 51.0742 181.799 51.2832 181.545 51.7012C181.291 52.1191 181.16 52.7617 181.152 53.6289V55.3633C181.152 56.2852 181.285 56.9668 181.551 57.4082C181.82 57.8457 182.227 58.0645 182.77 58.0645C183.305 58.0645 183.701 57.8574 183.959 57.4434C184.221 57.0293 184.357 56.377 184.369 55.4863V53.7109ZM191.096 50.2949V51.2148H190.896C190.053 51.2305 189.381 51.4805 188.881 51.9648C188.381 52.4492 188.092 53.1309 188.014 54.0098C188.463 53.4941 189.076 53.2363 189.854 53.2363C190.596 53.2363 191.188 53.498 191.629 54.0215C192.074 54.5449 192.297 55.2207 192.297 56.0488C192.297 56.9277 192.057 57.6309 191.576 58.1582C191.1 58.6855 190.459 58.9492 189.654 58.9492C188.838 58.9492 188.176 58.6367 187.668 58.0117C187.16 57.3828 186.906 56.5742 186.906 55.5859V55.1699C186.906 53.5996 187.24 52.4004 187.908 51.5723C188.58 50.7402 189.578 50.3145 190.902 50.2949H191.096ZM189.672 54.1387C189.301 54.1387 188.959 54.25 188.646 54.4727C188.334 54.6953 188.117 54.9746 187.996 55.3105V55.709C187.996 56.4121 188.154 56.9785 188.471 57.4082C188.787 57.8379 189.182 58.0527 189.654 58.0527C190.143 58.0527 190.525 57.873 190.803 57.5137C191.084 57.1543 191.225 56.6836 191.225 56.1016C191.225 55.5156 191.082 55.043 190.797 54.6836C190.516 54.3203 190.141 54.1387 189.672 54.1387Z" fill="#666666"/>
<path d="M228.262 57.832V51.832" stroke="#666666"/>
<path d="M221.061 58.832H215.471V58.0527L218.424 54.7715C218.861 54.2754 219.162 53.873 219.326 53.5645C219.494 53.252 219.578 52.9297 219.578 52.5977C219.578 52.1523 219.443 51.7871 219.174 51.502C218.904 51.2168 218.545 51.0742 218.096 51.0742C217.557 51.0742 217.137 51.2285 216.836 51.5371C216.539 51.8418 216.391 52.2676 216.391 52.8145H215.307C215.307 52.0293 215.559 51.3945 216.062 50.9102C216.57 50.4258 217.248 50.1836 218.096 50.1836C218.889 50.1836 219.516 50.3926 219.977 50.8105C220.438 51.2246 220.668 51.7773 220.668 52.4688C220.668 53.3086 220.133 54.3086 219.062 55.4688L216.777 57.9473H221.061V58.832ZM227.559 55.1934C227.559 56.4629 227.342 57.4062 226.908 58.0234C226.475 58.6406 225.797 58.9492 224.875 58.9492C223.965 58.9492 223.291 58.6484 222.854 58.0469C222.416 57.4414 222.189 56.5391 222.174 55.3398V53.8926C222.174 52.6387 222.391 51.707 222.824 51.0977C223.258 50.4883 223.938 50.1836 224.863 50.1836C225.781 50.1836 226.457 50.4785 226.891 51.0684C227.324 51.6543 227.547 52.5605 227.559 53.7871V55.1934ZM226.475 53.7109C226.475 52.793 226.346 52.125 226.088 51.707C225.83 51.2852 225.422 51.0742 224.863 51.0742C224.309 51.0742 223.904 51.2832 223.65 51.7012C223.396 52.1191 223.266 52.7617 223.258 53.6289V55.3633C223.258 56.2852 223.391 56.9668 223.656 57.4082C223.926 57.8457 224.332 58.0645 224.875 58.0645C225.41 58.0645 225.807 57.8574 226.064 57.4434C226.326 57.0293 226.463 56.377 226.475 55.4863V53.7109ZM234.297 55.1934C234.297 56.4629 234.08 57.4062 233.646 58.0234C233.213 58.6406 232.535 58.9492 231.613 58.9492C230.703 58.9492 230.029 58.6484 229.592 58.0469C229.154 57.4414 228.928 56.5391 228.912 55.3398V53.8926C228.912 52.6387 229.129 51.707 229.562 51.0977C229.996 50.4883 230.676 50.1836 231.602 50.1836C232.52 50.1836 233.195 50.4785 233.629 51.0684C234.062 51.6543 234.285 52.5605 234.297 53.7871V55.1934ZM233.213 53.7109C233.213 52.793 233.084 52.125 232.826 51.707C232.568 51.2852 232.16 51.0742 231.602 51.0742C231.047 51.0742 230.643 51.2832 230.389 51.7012C230.135 52.1191 230.004 52.7617 229.996 53.6289V55.3633C229.996 56.2852 230.129 56.9668 230.395 57.4082C230.664 57.8457 231.07 58.0645 231.613 58.0645C232.148 58.0645 232.545 57.8574 232.803 57.4434C233.064 57.0293 233.201 56.377 233.213 55.4863V53.7109ZM240.859 52.5273C240.859 52.9531 240.746 53.332 240.52 53.6641C240.297 53.9961 239.994 54.2559 239.611 54.4434C240.057 54.6348 240.408 54.9141 240.666 55.2812C240.928 55.6484 241.059 56.0645 241.059 56.5293C241.059 57.2676 240.809 57.8555 240.309 58.293C239.812 58.7305 239.158 58.9492 238.346 58.9492C237.525 58.9492 236.867 58.7305 236.371 58.293C235.879 57.8516 235.633 57.2637 235.633 56.5293C235.633 56.0684 235.758 55.6523 236.008 55.2812C236.262 54.9102 236.611 54.6289 237.057 54.4375C236.678 54.25 236.379 53.9902 236.16 53.6582C235.941 53.3262 235.832 52.9492 235.832 52.5273C235.832 51.8086 236.062 51.2383 236.523 50.8164C236.984 50.3945 237.592 50.1836 238.346 50.1836C239.096 50.1836 239.701 50.3945 240.162 50.8164C240.627 51.2383 240.859 51.8086 240.859 52.5273ZM239.975 56.5059C239.975 56.0293 239.822 55.6406 239.518 55.3398C239.217 55.0391 238.822 54.8887 238.334 54.8887C237.846 54.8887 237.453 55.0371 237.156 55.334C236.863 55.6309 236.717 56.0215 236.717 56.5059C236.717 56.9902 236.859 57.3711 237.145 57.6484C237.434 57.9258 237.834 58.0645 238.346 58.0645C238.854 58.0645 239.252 57.9258 239.541 57.6484C239.83 57.3672 239.975 56.9863 239.975 56.5059ZM238.346 51.0742C237.92 51.0742 237.574 51.207 237.309 51.4727C237.047 51.7344 236.916 52.0918 236.916 52.5449C236.916 52.9785 237.045 53.3301 237.303 53.5996C237.564 53.8652 237.912 53.998 238.346 53.998C238.779 53.998 239.125 53.8652 239.383 53.5996C239.645 53.3301 239.775 52.9785 239.775 52.5449C239.775 52.1113 239.641 51.7578 239.371 51.4844C239.102 51.2109 238.76 51.0742 238.346 51.0742Z" fill="#666666"/>
<path d="M277.104 57.832V51.832" stroke="#666666"/>
<path d="M269.902 58.832H264.312V58.0527L267.266 54.7715C267.703 54.2754 268.004 53.873 268.168 53.5645C268.336 53.252 268.42 52.9297 268.42 52.5977C268.42 52.1523 268.285 51.7871 268.016 51.502C267.746 51.2168 267.387 51.0742 266.938 51.0742C266.398 51.0742 265.979 51.2285 265.678 51.5371C265.381 51.8418 265.232 52.2676 265.232 52.8145H264.148C264.148 52.0293 264.4 51.3945 264.904 50.9102C265.412 50.4258 266.09 50.1836 266.938 50.1836C267.73 50.1836 268.357 50.3926 268.818 50.8105C269.279 51.2246 269.51 51.7773 269.51 52.4688C269.51 53.3086 268.975 54.3086 267.904 55.4688L265.619 57.9473H269.902V58.832ZM276.4 55.1934C276.4 56.4629 276.184 57.4062 275.75 58.0234C275.316 58.6406 274.639 58.9492 273.717 58.9492C272.807 58.9492 272.133 58.6484 271.695 58.0469C271.258 57.4414 271.031 56.5391 271.016 55.3398V53.8926C271.016 52.6387 271.232 51.707 271.666 51.0977C272.1 50.4883 272.779 50.1836 273.705 50.1836C274.623 50.1836 275.299 50.4785 275.732 51.0684C276.166 51.6543 276.389 52.5605 276.4 53.7871V55.1934ZM275.316 53.7109C275.316 52.793 275.188 52.125 274.93 51.707C274.672 51.2852 274.264 51.0742 273.705 51.0742C273.15 51.0742 272.746 51.2832 272.492 51.7012C272.238 52.1191 272.107 52.7617 272.1 53.6289V55.3633C272.1 56.2852 272.232 56.9668 272.498 57.4082C272.768 57.8457 273.174 58.0645 273.717 58.0645C274.252 58.0645 274.648 57.8574 274.906 57.4434C275.168 57.0293 275.305 56.377 275.316 55.4863V53.7109ZM281.352 58.832H280.262V51.6074L278.076 52.4102V51.4258L281.182 50.2598H281.352V58.832ZM289.877 55.1934C289.877 56.4629 289.66 57.4062 289.227 58.0234C288.793 58.6406 288.115 58.9492 287.193 58.9492C286.283 58.9492 285.609 58.6484 285.172 58.0469C284.734 57.4414 284.508 56.5391 284.492 55.3398V53.8926C284.492 52.6387 284.709 51.707 285.143 51.0977C285.576 50.4883 286.256 50.1836 287.182 50.1836C288.1 50.1836 288.775 50.4785 289.209 51.0684C289.643 51.6543 289.865 52.5605 289.877 53.7871V55.1934ZM288.793 53.7109C288.793 52.793 288.664 52.125 288.406 51.707C288.148 51.2852 287.74 51.0742 287.182 51.0742C286.627 51.0742 286.223 51.2832 285.969 51.7012C285.715 52.1191 285.584 52.7617 285.576 53.6289V55.3633C285.576 56.2852 285.709 56.9668 285.975 57.4082C286.244 57.8457 286.65 58.0645 287.193 58.0645C287.729 58.0645 288.125 57.8574 288.383 57.4434C288.645 57.0293 288.781 56.377 288.793 55.4863V53.7109Z" fill="#666666"/>
<path d="M325.945 57.832V51.832" stroke="#666666"/>
<path d="M318.744 58.832H313.154V58.0527L316.107 54.7715C316.545 54.2754 316.846 53.873 317.01 53.5645C317.178 53.252 317.262 52.9297 317.262 52.5977C317.262 52.1523 317.127 51.7871 316.857 51.502C316.588 51.2168 316.229 51.0742 315.779 51.0742C315.24 51.0742 314.82 51.2285 314.52 51.5371C314.223 51.8418 314.074 52.2676 314.074 52.8145H312.99C312.99 52.0293 313.242 51.3945 313.746 50.9102C314.254 50.4258 314.932 50.1836 315.779 50.1836C316.572 50.1836 317.199 50.3926 317.66 50.8105C318.121 51.2246 318.352 51.7773 318.352 52.4688C318.352 53.3086 317.816 54.3086 316.746 55.4688L314.461 57.9473H318.744V58.832ZM325.242 55.1934C325.242 56.4629 325.025 57.4062 324.592 58.0234C324.158 58.6406 323.48 58.9492 322.559 58.9492C321.648 58.9492 320.975 58.6484 320.537 58.0469C320.1 57.4414 319.873 56.5391 319.857 55.3398V53.8926C319.857 52.6387 320.074 51.707 320.508 51.0977C320.941 50.4883 321.621 50.1836 322.547 50.1836C323.465 50.1836 324.141 50.4785 324.574 51.0684C325.008 51.6543 325.23 52.5605 325.242 53.7871V55.1934ZM324.158 53.7109C324.158 52.793 324.029 52.125 323.771 51.707C323.514 51.2852 323.105 51.0742 322.547 51.0742C321.992 51.0742 321.588 51.2832 321.334 51.7012C321.08 52.1191 320.949 52.7617 320.941 53.6289V55.3633C320.941 56.2852 321.074 56.9668 321.34 57.4082C321.609 57.8457 322.016 58.0645 322.559 58.0645C323.094 58.0645 323.49 57.8574 323.748 57.4434C324.01 57.0293 324.146 56.377 324.158 55.4863V53.7109ZM330.193 58.832H329.104V51.6074L326.918 52.4102V51.4258L330.023 50.2598H330.193V58.832ZM338.959 58.832H333.369V58.0527L336.322 54.7715C336.76 54.2754 337.061 53.873 337.225 53.5645C337.393 53.252 337.477 52.9297 337.477 52.5977C337.477 52.1523 337.342 51.7871 337.072 51.502C336.803 51.2168 336.443 51.0742 335.994 51.0742C335.455 51.0742 335.035 51.2285 334.734 51.5371C334.438 51.8418 334.289 52.2676 334.289 52.8145H333.205C333.205 52.0293 333.457 51.3945 333.961 50.9102C334.469 50.4258 335.146 50.1836 335.994 50.1836C336.787 50.1836 337.414 50.3926 337.875 50.8105C338.336 51.2246 338.566 51.7773 338.566 52.4688C338.566 53.3086 338.031 54.3086 336.961 55.4688L334.676 57.9473H338.959V58.832Z" fill="#666666"/>
<path d="M374.787 57.832V51.832" stroke="#666666"/>
<path d="M367.586 58.832H361.996V58.0527L364.949 54.7715C365.387 54.2754 365.688 53.873 365.852 53.5645C366.02 53.252 366.104 52.9297 366.104 52.5977C366.104 52.1523 365.969 51.7871 365.699 51.502C365.43 51.2168 365.07 51.0742 364.621 51.0742C364.082 51.0742 363.662 51.2285 363.361 51.5371C363.064 51.8418 362.916 52.2676 362.916 52.8145H361.832C361.832 52.0293 362.084 51.3945 362.588 50.9102C363.096 50.4258 363.773 50.1836 364.621 50.1836C365.414 50.1836 366.041 50.3926 366.502 50.8105C366.963 51.2246 367.193 51.7773 367.193 52.4688C367.193 53.3086 366.658 54.3086 365.588 55.4688L363.303 57.9473H367.586V58.832ZM374.084 55.1934C374.084 56.4629 373.867 57.4062 373.434 58.0234C373 58.6406 372.322 58.9492 371.4 58.9492C370.49 58.9492 369.816 58.6484 369.379 58.0469C368.941 57.4414 368.715 56.5391 368.699 55.3398V53.8926C368.699 52.6387 368.916 51.707 369.35 51.0977C369.783 50.4883 370.463 50.1836 371.389 50.1836C372.307 50.1836 372.982 50.4785 373.416 51.0684C373.85 51.6543 374.072 52.5605 374.084 53.7871V55.1934ZM373 53.7109C373 52.793 372.871 52.125 372.613 51.707C372.355 51.2852 371.947 51.0742 371.389 51.0742C370.834 51.0742 370.43 51.2832 370.176 51.7012C369.922 52.1191 369.791 52.7617 369.783 53.6289V55.3633C369.783 56.2852 369.916 56.9668 370.182 57.4082C370.451 57.8457 370.857 58.0645 371.4 58.0645C371.936 58.0645 372.332 57.8574 372.59 57.4434C372.852 57.0293 372.988 56.377 373 55.4863V53.7109ZM379.035 58.832H377.945V51.6074L375.76 52.4102V51.4258L378.865 50.2598H379.035V58.832ZM386.787 55.9668H387.971V56.8516H386.787V58.832H385.697V56.8516H381.812V56.2129L385.633 50.3008H386.787V55.9668ZM383.043 55.9668H385.697V51.7832L385.568 52.0176L383.043 55.9668Z" fill="#666666"/>
<path d="M423.629 57.832V51.832" stroke="#666666"/>
<path d="M416.428 58.832H410.838V58.0527L413.791 54.7715C414.229 54.2754 414.529 53.873 414.693 53.5645C414.861 53.252 414.945 52.9297 414.945 52.5977C414.945 52.1523 414.811 51.7871 414.541 51.502C414.271 51.2168 413.912 51.0742 413.463 51.0742C412.924 51.0742 412.504 51.2285 412.203 51.5371C411.906 51.8418 411.758 52.2676 411.758 52.8145H410.674C410.674 52.0293 410.926 51.3945 411.43 50.9102C411.938 50.4258 412.615 50.1836 413.463 50.1836C414.256 50.1836 414.883 50.3926 415.344 50.8105C415.805 51.2246 416.035 51.7773 416.035 52.4688C416.035 53.3086 415.5 54.3086 414.43 55.4688L412.145 57.9473H416.428V58.832ZM422.926 55.1934C422.926 56.4629 422.709 57.4062 422.275 58.0234C421.842 58.6406 421.164 58.9492 420.242 58.9492C419.332 58.9492 418.658 58.6484 418.221 58.0469C417.783 57.4414 417.557 56.5391 417.541 55.3398V53.8926C417.541 52.6387 417.758 51.707 418.191 51.0977C418.625 50.4883 419.305 50.1836 420.23 50.1836C421.148 50.1836 421.824 50.4785 422.258 51.0684C422.691 51.6543 422.914 52.5605 422.926 53.7871V55.1934ZM421.842 53.7109C421.842 52.793 421.713 52.125 421.455 51.707C421.197 51.2852 420.789 51.0742 420.23 51.0742C419.676 51.0742 419.271 51.2832 419.018 51.7012C418.764 52.1191 418.633 52.7617 418.625 53.6289V55.3633C418.625 56.2852 418.758 56.9668 419.023 57.4082C419.293 57.8457 419.699 58.0645 420.242 58.0645C420.777 58.0645 421.174 57.8574 421.432 57.4434C421.693 57.0293 421.83 56.377 421.842 55.4863V53.7109ZM427.877 58.832H426.787V51.6074L424.602 52.4102V51.4258L427.707 50.2598H427.877V58.832ZM435.307 50.2949V51.2148H435.107C434.264 51.2305 433.592 51.4805 433.092 51.9648C432.592 52.4492 432.303 53.1309 432.225 54.0098C432.674 53.4941 433.287 53.2363 434.064 53.2363C434.807 53.2363 435.398 53.498 435.84 54.0215C436.285 54.5449 436.508 55.2207 436.508 56.0488C436.508 56.9277 436.268 57.6309 435.787 58.1582C435.311 58.6855 434.67 58.9492 433.865 58.9492C433.049 58.9492 432.387 58.6367 431.879 58.0117C431.371 57.3828 431.117 56.5742 431.117 55.5859V55.1699C431.117 53.5996 431.451 52.4004 432.119 51.5723C432.791 50.7402 433.789 50.3145 435.113 50.2949H435.307ZM433.883 54.1387C433.512 54.1387 433.17 54.25 432.857 54.4727C432.545 54.6953 432.328 54.9746 432.207 55.3105V55.709C432.207 56.4121 432.365 56.9785 432.682 57.4082C432.998 57.8379 433.393 58.0527 433.865 58.0527C434.354 58.0527 434.736 57.873 435.014 57.5137C435.295 57.1543 435.436 56.6836 435.436 56.1016C435.436 55.5156 435.293 55.043 435.008 54.6836C434.727 54.3203 434.352 54.1387 433.883 54.1387Z" fill="#666666"/>
<path d="M472.471 57.832V51.832" stroke="#666666"/>
<path d="M465.27 58.832H459.68V58.0527L462.633 54.7715C463.07 54.2754 463.371 53.873 463.535 53.5645C463.703 53.252 463.787 52.9297 463.787 52.5977C463.787 52.1523 463.652 51.7871 463.383 51.502C463.113 51.2168 462.754 51.0742 462.305 51.0742C461.766 51.0742 461.346 51.2285 461.045 51.5371C460.748 51.8418 460.6 52.2676 460.6 52.8145H459.516C459.516 52.0293 459.768 51.3945 460.271 50.9102C460.779 50.4258 461.457 50.1836 462.305 50.1836C463.098 50.1836 463.725 50.3926 464.186 50.8105C464.646 51.2246 464.877 51.7773 464.877 52.4688C464.877 53.3086 464.342 54.3086 463.271 55.4688L460.986 57.9473H465.27V58.832ZM471.768 55.1934C471.768 56.4629 471.551 57.4062 471.117 58.0234C470.684 58.6406 470.006 58.9492 469.084 58.9492C468.174 58.9492 467.5 58.6484 467.062 58.0469C466.625 57.4414 466.398 56.5391 466.383 55.3398V53.8926C466.383 52.6387 466.6 51.707 467.033 51.0977C467.467 50.4883 468.146 50.1836 469.072 50.1836C469.99 50.1836 470.666 50.4785 471.1 51.0684C471.533 51.6543 471.756 52.5605 471.768 53.7871V55.1934ZM470.684 53.7109C470.684 52.793 470.555 52.125 470.297 51.707C470.039 51.2852 469.631 51.0742 469.072 51.0742C468.518 51.0742 468.113 51.2832 467.859 51.7012C467.605 52.1191 467.475 52.7617 467.467 53.6289V55.3633C467.467 56.2852 467.6 56.9668 467.865 57.4082C468.135 57.8457 468.541 58.0645 469.084 58.0645C469.619 58.0645 470.016 57.8574 470.273 57.4434C470.535 57.0293 470.672 56.377 470.684 55.4863V53.7109ZM476.719 58.832H475.629V51.6074L473.443 52.4102V51.4258L476.549 50.2598H476.719V58.832ZM485.068 52.5273C485.068 52.9531 484.955 53.332 484.729 53.6641C484.506 53.9961 484.203 54.2559 483.82 54.4434C484.266 54.6348 484.617 54.9141 484.875 55.2812C485.137 55.6484 485.268 56.0645 485.268 56.5293C485.268 57.2676 485.018 57.8555 484.518 58.293C484.021 58.7305 483.367 58.9492 482.555 58.9492C481.734 58.9492 481.076 58.7305 480.58 58.293C480.088 57.8516 479.842 57.2637 479.842 56.5293C479.842 56.0684 479.967 55.6523 480.217 55.2812C480.471 54.9102 480.82 54.6289 481.266 54.4375C480.887 54.25 480.588 53.9902 480.369 53.6582C480.15 53.3262 480.041 52.9492 480.041 52.5273C480.041 51.8086 480.271 51.2383 480.732 50.8164C481.193 50.3945 481.801 50.1836 482.555 50.1836C483.305 50.1836 483.91 50.3945 484.371 50.8164C484.836 51.2383 485.068 51.8086 485.068 52.5273ZM484.184 56.5059C484.184 56.0293 484.031 55.6406 483.727 55.3398C483.426 55.0391 483.031 54.8887 482.543 54.8887C482.055 54.8887 481.662 55.0371 481.365 55.334C481.072 55.6309 480.926 56.0215 480.926 56.5059C480.926 56.9902 481.068 57.3711 481.354 57.6484C481.643 57.9258 482.043 58.0645 482.555 58.0645C483.062 58.0645 483.461 57.9258 483.75 57.6484C484.039 57.3672 484.184 56.9863 484.184 56.5059ZM482.555 51.0742C482.129 51.0742 481.783 51.207 481.518 51.4727C481.256 51.7344 481.125 52.0918 481.125 52.5449C481.125 52.9785 481.254 53.3301 481.512 53.5996C481.773 53.8652 482.121 53.998 482.555 53.998C482.988 53.998 483.334 53.8652 483.592 53.5996C483.854 53.3301 483.984 52.9785 483.984 52.5449C483.984 52.1113 483.85 51.7578 483.58 51.4844C483.311 51.2109 482.969 51.0742 482.555 51.0742Z" fill="#666666"/>
<path d="M23.123 50.7109H42.123V51.8316H23.123V50.7109Z" fill="#3775B9"/>
<path d="M47.5449 50.0811H66.5449V51.8321H47.5449V50.0811Z" fill="#3775B9"/>
<path d="M71.9648 49.5908H90.9648V51.8322H71.9648V49.5908Z" fill="#3775B9"/>
<path d="M96.3867 49.3809H115.387V51.8324H96.3867V49.3809Z" fill="#3775B9"/>
<path d="M120.807 46.7188H139.807V51.8319H120.807V46.7188Z" fill="#3775B9"/>
<path d="M145.229 46.7188H164.229V51.8319H145.229V46.7188Z" fill="#3775B9"/>
<path d="M169.648 44.0576H188.648V51.8324H169.648V44.0576Z" fill="#3775B9"/>
<path d="M194.07 38.3838H213.07V51.8321H194.07V38.3838Z" fill="#3775B9"/>
<path d="M218.492 37.123H237.492V51.8321H218.492V37.123Z" fill="#3775B9"/>
<path d="M242.912 39.3643H261.912V51.8319H242.912V39.3643Z" fill="#3775B9"/>
<path d="M267.334 41.7461H286.334V51.8323H267.334V41.7461Z" fill="#3775B9"/>
<path d="M291.754 36.0723H310.754V51.832H291.754V36.0723Z" fill="#3775B9"/>
<path d="M316.176 34.6016H335.176V51.8322H316.176V34.6016Z" fill="#3775B9"/>
<path d="M340.598 31.3096H359.598V51.8322H340.598V31.3096Z" fill="#3775B9"/>
<path d="M365.018 19.332H384.018V51.832H365.018V19.332Z" fill="#3775B9"/>
<path d="M389.439 32.5H408.439V51.8319H389.439V32.5Z" fill="#3775B9"/>
<path d="M413.859 33.9707H432.859V51.8317H413.859V33.9707Z" fill="#3775B9"/>
<path d="M438.281 36.1426H457.281V51.8322H438.281V36.1426Z" fill="#3775B9"/>
<path d="M462.701 40.2051H481.701V51.8322H462.701V40.2051Z" fill="#3775B9"/>
</svg>
